<?xml version="1.0" encoding="UTF-8"?>
<svg version="1.1" xmlns="http://www.w3.org/2000/svg" width="32" height="32">
<path d="M0 0 C2.375 -0.1875 2.375 -0.1875 5 0 C7 3 7 3 7 6 C15.25 6 23.5 6 32 6 C31 14 31 14 28 21 C21.4 21 14.8 21 8 21 C6.08573096 15.25719287 4.58831586 10.52989517 3.625 4.75 C3.41875 4.1725 3.2125 3.595 3 3 C2.01 2.67 1.02 2.34 0 2 C0 1.34 0 0.68 0 0 Z M7 8 C7.52896837 14.01968036 7.52896837 14.01968036 10 19 C12.69654854 19.07319621 15.36691458 19.09242537 18.0625 19.0625 C18.82111328 19.05798828 19.57972656 19.05347656 20.36132812 19.04882812 C22.24091871 19.0370068 24.12046899 19.01907078 26 19 C26.66874384 17.35500958 27.33494074 15.70898352 28 14.0625 C28.37125 13.14597656 28.7425 12.22945312 29.125 11.28515625 C30.059598 9.25217842 30.059598 9.25217842 30 8 C22.41 8 14.82 8 7 8 Z " fill="#000000" transform="translate(0,1)"/>
<path d="M0 0 C2.5625 0.1875 2.5625 0.1875 4.5625 2.1875 C4.1875 5.3125 4.1875 5.3125 3.5625 8.1875 C1.25 8.875 1.25 8.875 -1.4375 9.1875 C-3.3125 8.0625 -3.3125 8.0625 -4.4375 6.1875 C-3.87661439 0.29820111 -3.87661439 0.29820111 0 0 Z M-0.4375 2.1875 C-0.7675 3.5075 -1.0975 4.8275 -1.4375 6.1875 C-0.4475 6.1875 0.5425 6.1875 1.5625 6.1875 C1.2325 4.8675 0.9025 3.5475 0.5625 2.1875 C0.2325 2.1875 -0.0975 2.1875 -0.4375 2.1875 Z " fill="#000000" transform="translate(10.4375,22.8125)"/>
<path d="M0 0 C3.125 0.375 3.125 0.375 6 1 C6.6875 2.75 6.6875 2.75 7 5 C5.5625 7.25 5.5625 7.25 4 9 C-0.875 8.125 -0.875 8.125 -2 7 C-2.1875 4.5625 -2.1875 4.5625 -2 2 C-1.34 1.34 -0.68 0.68 0 0 Z M1 3 C1 3.99 1 4.98 1 6 C1.99 6 2.98 6 4 6 C4 5.01 4 4.02 4 3 C3.01 3 2.02 3 1 3 Z " fill="#000000" transform="translate(23,23)"/>
</svg>
